HIERARCHY
ROOT Hips
{
	OFFSET 0.00000 0.00000 0.00000
	CHANNELS 6 Xposition Yposition Zposition Zrotation Yrotation Xrotation 
	JOINT LHipJoint
	{
		OFFSET 0 0 0
		CHANNELS 3 Zrotation Yrotation Xrotation
		JOINT LeftHip
		{
			OFFSET 1.53139 -1.83434 0.76626
			CHANNELS 3 Zrotation Yrotation Xrotation
			JOINT LeftKnee
			{
				OFFSET 2.56112 -7.03663 0.00000
				CHANNELS 3 Zrotation Yrotation Xrotation
				JOINT LeftAnkle
				{
					OFFSET 2.59983 -7.14299 0.00000
					CHANNELS 3 Zrotation Yrotation Xrotation
					JOINT LeftToe
					{
						OFFSET 0.13742 -0.37757 2.00054
						CHANNELS 3 Zrotation Yrotation Xrotation
						End Site
						{
							OFFSET 0.00000 -0.00000 1.02897
						}
					}
				}
			}
		}
	}
	JOINT RHipJoint
	{
		OFFSET 0 0 0
		CHANNELS 3 Zrotation Yrotation Xrotation
		JOINT RightHip
		{
			OFFSET -1.40122 -1.83435 0.76627
			CHANNELS 3 Zrotation Yrotation Xrotation
			JOINT RightKnee
			{
				OFFSET -2.54052 -6.98003 0.00000
				CHANNELS 3 Zrotation Yrotation Xrotation
				JOINT RightAnkle
				{
					OFFSET -2.63179 -7.23079 0.00000
					CHANNELS 3 Zrotation Yrotation Xrotation
					JOINT RightToe
					{
						OFFSET -0.24131 -0.66299 2.03908
						CHANNELS 3 Zrotation Yrotation Xrotation
						End Site
						{
							OFFSET -0.00000 -0.00000 1.07391
						}
					}
				}
			}
		}
	}
	JOINT lowerback
	{
		OFFSET 0 0 0
		CHANNELS 3 Zrotation Yrotation Xrotation
		JOINT Chest
		{
			OFFSET 0.01174 2.10302 -0.29778
			CHANNELS 3 Zrotation Yrotation Xrotation
			JOINT Chest2
			{
				OFFSET 0.00772 2.13227 -0.01247
				CHANNELS 3 Zrotation Yrotation Xrotation
				JOINT lowerneck
				{
					OFFSET 0 0 0
					CHANNELS 3 Zrotation Yrotation Xrotation
					JOINT Neck
					{
						OFFSET -0.09219 1.60848 0.31481
						CHANNELS 3 Zrotation Yrotation Xrotation
						JOINT Head
						{
							OFFSET 0.13974 1.65456 -0.31134
							CHANNELS 3 Zrotation Yrotation Xrotation
							End Site
							{
								OFFSET 0.04742 1.69515 -0.14578
							}
						}
					}
				}
				JOINT LeftCollar
				{
					OFFSET 0 0 0
					CHANNELS 3 Zrotation Yrotation Xrotation
					JOINT LeftShoulder
					{
						OFFSET 3.24909 1.02882 -0.23993
CHANNELS 3 Zrotation Xrotation Yrotation
						JOINT LeftElbow
						{
OFFSET 0 -5.329550 -0.000000
CHANNELS 3 Zrotation Xrotation Yrotation
							JOINT LeftWrist
							{
OFFSET 0 -3.692320 -0.000000
CHANNELS 3 Zrotation Xrotation Yrotation
								JOINT lhand
								{
									OFFSET 0 0 0
CHANNELS 3 Zrotation Xrotation Yrotation
									JOINT LFingers
									{
OFFSET 0 -0.536600 -0.000000
CHANNELS 3 Zrotation Xrotation Yrotation
										End Site
										{
OFFSET 0 -0.432620 -0.000000
										}
									}
								}
								JOINT LThumb
								{
OFFSET 0 0.000000 0.000000
CHANNELS 3 Zrotation Xrotation Yrotation
									End Site
									{
OFFSET 0 -0.439220 0.439220
									}
								}
							}
						}
					}
				}
				JOINT RightCollar
				{
					OFFSET 0 0 0
					CHANNELS 3 Zrotation Yrotation Xrotation
					JOINT RightShoulder
					{
						OFFSET -3.21387 0.93002 -0.34594
CHANNELS 3 Zrotation Xrotation Yrotation
						JOINT RightElbow
						{
OFFSET 0 -5.234310 0.000000
CHANNELS 3 Zrotation Xrotation Yrotation
							JOINT RightWrist
							{
OFFSET 0 -3.553010 -0.000000
CHANNELS 3 Zrotation Xrotation Yrotation
								JOINT rhand
								{
									OFFSET 0 0 0
CHANNELS 3 Zrotation Xrotation Yrotation
									JOINT RFingers
									{
OFFSET 0 -0.772520 -0.000000
CHANNELS 3 Zrotation Xrotation Yrotation
										End Site
										{
OFFSET 0 -0.622830 -0.000000
										}
									}
								}
								JOINT RThumb
								{
OFFSET 0 0.000000 0.000000
CHANNELS 3 Zrotation Xrotation Yrotation
									End Site
									{
OFFSET 0 -0.632340 0.632340
									}
								}
							}
						}
					}
				}
			}
		}
	}
}
MOTION
Frames: 11
Frame Time: 0.008333333333333333
11.576700 17.661600 -21.774500 -167.405000 85.265700 -170.300000 0.000000 0.000000 0.000000 -23.604000 -0.524100 -3.390200 2.093500 9.058100 25.977300 0.859300 -2.169600 -16.917700 0.009300 -0.623500 -1.713500 0.000000 0.000000 0.000000 20.959300 4.491500 -7.343600 -3.493700 -11.454400 33.828100 -1.079800 -0.199800 -19.721600 -0.138700 -2.400200 6.613100 -0.949200 1.112800 6.498000 0.308900 1.427000 -0.266800 0.711800 0.732800 -3.951200 -10.975000 -4.762800 -21.280400 7.229300 -4.755300 31.743800 4.076700 -2.112000 15.132700 0.000000 0.000000 0.000000 1.319300 -0.044900 -28.830300 12.099900 -19.954300 2.136300 -0.000000 8.277500 0.000000 0.000000 0.000000 0.000000 -0.000000 0.000000 -0.000000 0.000000 0.000000 -0.000000 0.000000 0.000000 0.000000 1.758500 2.262500 13.892700 -13.640400 -22.218400 -2.690600 -16.049400 7.993600 -8.674800 0.000000 0.000000 0.000000 7.125000 0.000000 -0.000000 7.808900 20.994600 4.534300
11.577471 17.660429 -21.772000 -169.124339 85.277903 -172.044332 0.000000 0.000000 0.000000 -23.727639 -0.387688 -3.380331 2.084099 9.039097 25.917820 0.861370 -2.380786 -16.894693 0.007973 -0.561442 -1.542694 0.000000 0.000000 0.000000 20.814433 4.507774 -7.346265 -3.509400 -11.477271 33.906986 -1.076762 -0.224011 -19.702444 -0.127408 -2.296633 6.326353 -1.103604 1.082476 6.546549 0.256204 1.372123 -0.258689 0.748561 0.708261 -3.971442 -10.943910 -4.741904 -21.315507 7.215634 -4.727047 31.810190 4.074038 -2.097774 15.166361 0.000000 0.000000 0.000000 1.406367 -0.030290 -28.970979 12.115825 -19.978066 2.141737 0.000000 8.045672 0.000000 0.000000 0.000000 0.000000 0.000000 0.000000 0.000000 0.000000 0.000000 0.000000 0.000000 0.000000 0.000000 1.811833 2.209287 13.549996 -13.582612 -22.134882 -2.668828 -16.182060 8.352464 -8.952217 0.000000 0.000000 0.000000 7.125000 0.000000 0.000000 7.707685 20.702198 4.525853
11.577672 17.659715 -21.770829 -169.055354 85.277777 -171.982222 0.000000 0.000000 0.000000 -23.732755 -0.472294 -3.361038 2.088385 9.047728 25.944784 0.863345 -2.393796 -16.912202 0.001644 -0.249826 -0.686429 0.000000 0.000000 0.000000 20.825515 4.506624 -7.346366 -3.510256 -11.478456 33.910982 -1.069338 -0.315090 -19.666899 -0.115861 -2.191797 6.036016 -1.129425 1.071897 6.567902 0.277073 1.356734 -0.255151 0.785824 0.701411 -3.980624 -11.140261 -4.779844 -21.356635 7.448484 -4.784414 31.910377 4.203433 -2.112554 15.245011 0.000000 0.000000 0.000000 1.330109 -0.088927 -28.835837 12.048323 -19.877106 2.118698 0.000000 8.072297 0.000000 0.000000 0.000000 0.000000 0.000000 0.000000 0.000000 0.000000 0.000000 0.000000 0.000000 0.000000 0.000000 1.696408 2.224469 13.827449 -13.603445 -22.164869 -2.676653 -16.443566 8.082772 -8.674776 0.000000 0.000000 0.000000 7.125000 0.000000 0.000000 7.525269 20.974513 4.370441
11.577414 17.661042 -21.770186 -167.388912 85.300102 -170.292209 0.000000 0.000000 0.000000 -23.611542 -0.630912 -3.352157 2.090227 9.051454 25.956477 0.858759 -2.152544 -16.915496 0.001128 -0.218549 -0.600514 0.000000 0.000000 0.000000 20.969793 4.565426 -7.364856 -3.510129 -11.478287 33.910517 -1.086304 -0.172701 -19.770818 -0.186235 -2.772207 7.645569 -1.054419 1.081923 6.564002 0.364776 1.379487 -0.260514 0.832079 0.712080 -3.984914 -11.511234 -4.908552 -21.525012 7.834008 -4.949462 32.168412 4.417707 -2.171764 15.454495 0.000000 0.000000 0.000000 1.286065 0.040116 -29.070929 12.187117 -20.084633 2.166148 0.000000 7.722640 0.000000 0.000000 0.000000 0.000000 0.000000 0.000000 0.000000 0.000000 0.000000 0.000000 0.000000 0.000000 0.000000 1.579802 2.220687 13.833198 -13.607406 -22.170594 -2.678116 -16.568214 8.092702 -8.597147 0.000000 0.000000 0.000000 7.125000 0.000000 0.000000 7.437168 21.048069 4.305616
11.577058 17.664229 -21.766288 -168.177933 85.314985 -171.104177 0.000000 0.000000 0.000000 -23.641869 -0.541295 -3.392154 2.097409 9.066132 26.002351 0.858854 -2.286762 -16.888528 0.002416 -0.313677 -0.861866 0.000000 0.000000 0.000000 20.911669 4.610732 -7.317229 -3.508457 -11.475799 33.902012 -1.087785 -0.060099 -19.745061 -0.253222 -3.237975 8.942006 -1.234696 0.999332 6.606501 0.324502 1.254055 -0.189704 0.904217 0.652812 -3.935451 -11.348500 -4.928032 -21.623052 7.707811 -4.994977 32.049054 4.317546 -2.189887 15.415317 0.000000 0.000000 0.000000 1.155928 0.262181 -28.580944 12.405588 -20.410034 2.241704 0.000000 7.907366 0.000000 0.000000 0.000000 0.000000 0.000000 0.000000 0.000000 0.000000 0.000000 0.000000 0.000000 0.000000 0.000000 1.486006 2.202899 14.444951 -13.672916 -22.265175 -2.702952 -16.551287 7.637336 -8.655649 0.000000 0.000000 0.000000 7.125000 0.000000 0.000000 7.448145 20.988576 4.322218
11.575986 17.662903 -21.763417 -168.216067 85.304125 -171.179639 0.000000 0.000000 0.000000 -23.607017 -0.439744 -3.416348 2.103411 9.078265 26.040594 0.861301 -2.441365 -16.882033 0.002411 -0.305536 -0.839445 0.000000 0.000000 0.000000 20.931614 4.589687 -7.288314 -3.509997 -11.478152 33.909926 -1.085693 -0.120969 -19.747149 -0.233798 -3.105880 8.574070 -1.304038 0.871005 6.656830 0.228412 1.074391 -0.108196 0.861755 0.563626 -3.873987 -10.791384 -4.838777 -21.785575 7.376934 -4.955028 31.988021 4.080704 -2.151013 15.386010 0.000000 0.000000 0.000000 1.195793 0.278803 -27.977331 12.493378 -20.540452 2.272441 0.000000 8.095528 0.000000 0.000000 0.000000 0.000000 0.000000 0.000000 0.000000 0.000000 0.000000 0.000000 0.000000 0.000000 0.000000 1.424507 2.274953 15.388299 -13.810633 -22.463261 -2.755346 -16.495246 6.964546 -8.525760 0.000000 0.000000 0.000000 7.125000 0.000000 0.000000 7.491140 21.125485 4.324170
11.575272 17.661130 -21.759676 -166.143576 85.302264 -169.085190 0.000000 0.000000 0.000000 -23.381513 -0.267637 -3.528894 2.107823 9.087145 26.068420 0.860900 -2.473953 -16.871460 0.006039 -0.499738 -1.373106 0.000000 0.000000 0.000000 21.124393 4.556994 -7.364945 -3.513596 -11.483423 33.928051 -1.077353 -0.195876 -19.697665 -0.187825 -2.790783 7.696752 -1.192645 0.847174 6.645436 0.247393 1.052370 -0.092694 0.821327 0.550559 -3.849236 -9.654742 -4.567454 -21.898351 6.470404 -4.666738 31.941733 3.543545 -2.016080 15.279767 0.000000 0.000000 0.000000 1.875164 -0.080378 -29.365766 12.458921 -20.489296 2.260398 0.000000 6.397841 0.000000 0.000000 0.000000 0.000000 0.000000 0.000000 0.000000 0.000000 0.000000 0.000000 0.000000 0.000000 0.000000 1.403750 2.297758 15.668280 -13.854819 -22.526694 -2.772234 -16.491509 6.693749 -8.414399 0.000000 0.000000 0.000000 7.125000 0.000000 0.000000 7.496090 21.240520 4.307477
11.575200 17.660900 -21.755306 -166.538427 85.316574 -169.528332 0.000000 0.000000 0.000000 -23.404067 -0.301787 -3.466549 2.112095 9.095789 26.095367 0.865892 -2.553074 -16.906540 0.001709 -0.266953 -0.733545 0.000000 0.000000 0.000000 21.069970 4.532025 -7.339086 -3.519591 -11.491988 33.957857 -1.084984 -0.066125 -19.722132 -0.220836 -3.025147 8.348639 -1.287987 0.836522 6.739935 0.230345 1.029049 -0.087311 0.858324 0.541020 -3.897517 -9.384413 -4.428685 -21.798493 6.359892 -4.536272 31.825198 3.470507 -1.943998 15.174164 0.000000 0.000000 0.000000 2.062519 -0.090362 -29.929442 12.512598 -20.568849 2.279164 0.000000 5.635640 0.000000 0.000000 0.000000 0.000000 0.000000 0.000000 0.000000 0.000000 0.000000 0.000000 0.000000 0.000000 0.000000 1.401905 2.310089 15.634906 -13.833244 -22.495763 -2.764017 -16.439123 6.661551 -8.633424 0.000000 0.000000 0.000000 7.125000 0.000000 0.000000 7.529419 21.017281 4.365287
11.573320 17.662116 -21.750394 -168.039212 85.292045 -171.069983 0.000000 0.000000 0.000000 -23.492332 -0.310713 -3.406381 2.106970 9.085412 26.062868 0.864424 -2.767312 -16.851998 0.000315 0.110482 0.303619 0.000000 0.000000 0.000000 20.911344 4.293563 -7.414297 -3.532462 -11.510795 34.022655 -1.098934 0.212802 -19.754055 -0.247988 -3.204289 8.847960 -1.414085 0.835128 6.844623 0.171119 1.013915 -0.067960 0.868034 0.535735 -3.937158 -9.291961 -4.384178 -21.647450 6.352615 -4.517891 31.649704 3.448236 -1.927828 15.052773 0.000000 0.000000 0.000000 2.056977 -0.104105 -29.929011 12.534466 -20.601276 2.286832 0.000000 5.739492 0.000000 0.000000 0.000000 0.000000 0.000000 0.000000 0.000000 0.000000 0.000000 0.000000 0.000000 0.000000 0.000000 1.475652 2.210944 15.312795 -13.760250 -22.390940 -2.736127 -16.358604 7.004790 -8.788840 0.000000 0.000000 0.000000 7.125000 0.000000 0.000000 7.584149 20.861221 4.424486
11.568994 17.661798 -21.745677 -169.119471 85.232127 -172.188733 0.000000 0.000000 0.000000 -23.528120 -0.196719 -3.401775 2.099709 9.070818 26.016971 0.857114 -2.889651 -16.757101 0.000100 0.071020 0.195191 0.000000 0.000000 0.000000 20.795386 3.964010 -7.564786 -3.547519 -11.532565 34.097795 -1.088404 0.334990 -19.618438 -0.222829 -3.036628 8.380952 -1.463839 0.941171 7.015564 0.215404 1.149569 -0.133438 0.924514 0.605672 -4.106894 -9.801096 -4.576514 -21.292332 6.542643 -4.699129 31.543527 3.579423 -2.042814 14.969570 0.000000 0.000000 0.000000 1.828761 -0.054946 -30.083222 12.490379 -20.535924 2.271390 0.000000 6.036516 0.000000 0.000000 0.000000 0.000000 0.000000 0.000000 0.000000 0.000000 0.000000 0.000000 0.000000 0.000000 0.000000 1.514159 2.160795 14.332229 -13.652768 -22.236051 -2.695353 -16.382808 7.593857 -8.858042 0.000000 0.000000 0.000000 7.125000 0.000000 0.000000 7.565475 20.788665 4.425885
11.565690 17.663040 -21.740839 -170.230129 85.200965 -173.277631 0.000000 0.000000 0.000000 -23.582592 -0.146941 -3.448354 2.094994 9.061131 25.986795 0.852263 -3.066283 -16.678645 0.000442 0.133217 0.365965 0.000000 0.000000 0.000000 20.681684 3.833803 -7.698338 -3.561617 -11.553005 34.168370 -1.071728 0.385404 -19.449503 -0.179082 -2.724570 7.512979 -1.574331 1.075555 7.109445 0.312786 1.320950 -0.208184 1.066844 0.695046 -4.247063 -10.746152 -4.888721 -20.970649 7.052829 -5.002721 31.535332 3.903650 -2.217564 14.983025 0.000000 0.000000 0.000000 1.583753 -0.044634 -30.411377 12.458950 -20.489381 2.260355 0.000000 6.041840 0.000000 0.000000 0.000000 0.000000 0.000000 0.000000 0.000000 0.000000 0.000000 0.000000 0.000000 0.000000 0.000000 1.438871 2.101585 13.280246 -13.541041 -22.074745 -2.653192 -16.257228 8.267081 -8.999548 0.000000 0.000000 0.000000 7.125000 0.000000 0.000000 7.652807 20.649413 4.502178
